<?xml version="1.0" encoding="iso-8859-1"?>
<!-- Generator: Adobe Illustrator 17.1.0, SVG Export Plug-In . SVG Version: 6.00 Build 0)  -->
<!DOCTYPE svg PUBLIC "-//W3C//DTD SVG 1.1//EN" "http://www.w3.org/Graphics/SVG/1.1/DTD/svg11.dtd">
<svg version="1.1" id="Layer_1" xmlns="http://www.w3.org/2000/svg" xmlns:xlink="http://www.w3.org/1999/xlink" x="0px" y="0px"
	 viewBox="0 0 39.511 16.669" style="enable-background:new 0 0 39.511 16.669;" xml:space="preserve">
<path d="M38.716,5.507c-0.69-1.429-1.583-2.525-2.68-3.289c-0.875-0.616-1.681-0.924-2.42-0.924c-0.752,0-1.654,0.12-2.708,0.36
	c-1.053,0.24-1.765,0.36-2.134,0.36c-1.072,0-1.898-0.406-2.477-1.219c-0.345-0.493-0.671-0.74-0.979-0.74
	c-0.247,0-0.407,0.136-0.48,0.407c0.246,0.579,0.554,0.992,0.924,1.238c0.307,0.197,0.462,0.333,0.462,0.407
	c0,0.012-0.007,0.046-0.019,0.101c-0.012,0.056-0.018,0.108-0.018,0.157c0,0.37,0.2,0.647,0.6,0.832
	c0.4,0.185,0.816,0.364,1.248,0.536c-0.777,1.035-1.165,2.193-1.165,3.474c0,1.454,0.437,2.689,1.312,3.705
	c0.875,1.017,1.928,1.525,3.16,1.525c0.592,0,1.121-0.185,1.59-0.554c0.468-0.37,0.702-0.801,0.702-1.294
	c0-0.419-0.083-0.758-0.249-1.016c-0.167-0.259-0.392-0.388-0.675-0.388c-0.739,0-1.109,0.418-1.109,1.256
	c0,0.284,0.228,0.548,0.684,0.795c-0.185,0.246-0.339,0.369-0.462,0.369h-0.055c-0.05,0-0.139,0.01-0.268,0.028
	c-0.13,0.019-0.231,0.028-0.305,0.028c-0.986,0-1.824-0.456-2.514-1.368c-0.69-0.911-1.034-1.983-1.034-3.215
	c0-0.973,0.449-2.039,1.349-3.197c0.726-0.936,1.41-1.405,2.051-1.405h0.092c0.123,0,0.21,0.044,0.259,0.13
	c-0.296,0.258-0.444,0.64-0.444,1.145c0,0.37,0.031,0.617,0.093,0.74c0.086,0.16,0.271,0.24,0.554,0.24
	c0.308,0,0.776-0.145,1.405-0.434c0.628-0.29,0.979-0.435,1.053-0.435c0.185,0,0.425,0.062,0.721,0.185
	c0.381,0.16,0.69,0.37,0.924,0.628c-0.111,0.161-0.277,0.272-0.499,0.333c-0.173,0.049-0.351,0.099-0.536,0.148
	c-0.136,0.062-0.271,0.173-0.407,0.333c-0.135,0.16-0.203,0.271-0.203,0.332c0,0.284,0.105,0.493,0.314,0.628
	c0.16,0.111,0.468,0.21,0.924,0.296c0.924,0.185,1.398,0.277,1.423,0.277c0.271,0,0.61,0.173,1.017,0.518
	c0.406,0.345,0.609,0.671,0.609,0.979v0.037c0,0.111-0.03,0.191-0.092,0.24c-0.48-0.172-0.739-0.258-0.776-0.258
	c-0.395,0-0.591,0.32-0.591,0.961c0,0.172,0.147,0.502,0.443,0.988c0.296,0.487,0.444,0.94,0.444,1.359
	c0,0.912-0.512,1.78-1.534,2.605c-1.208,0.986-2.766,1.479-4.676,1.479c-2.562,0-4.694-0.739-6.394-2.218
	c0.333,0.013,0.727,0.074,1.183,0.185c0.456,0.111,0.758,0.166,0.905,0.166c0.049,0,0.327-0.055,0.832-0.166
	c0.16-0.111,0.24-0.215,0.24-0.314c0-0.062-0.089-0.142-0.268-0.24c-0.178-0.099-0.354-0.148-0.526-0.148
	c-0.099,0-0.262-0.016-0.49-0.047c-0.228-0.03-0.404-0.046-0.527-0.046c-0.222,0-0.647-0.215-1.275-0.647
	c-0.739-0.505-1.367-1.047-1.885-1.626c-0.431-0.492-0.647-0.831-0.647-1.016c0-0.025,0.065-0.13,0.194-0.314
	c0.13-0.185,0.194-0.37,0.194-0.555c0-0.48-0.098-0.763-0.295-0.85c-0.727-0.308-1.226-0.721-1.497-1.238
	c-0.16-0.283-0.271-0.714-0.333-1.294c-0.099-0.8-0.431-1.502-0.998-2.106C19.41,2.852,18.548,2.267,17.39,1.7
	c-1.232-0.603-2.372-1.028-3.419-1.275C12.813,0.142,11.519,0,10.09,0C6.887,0,4.14,0.746,1.848,2.236
	C1.023,2.766,0.53,3.105,0.37,3.252C0.123,3.499,0,3.801,0,4.158c0,0.136,0.007,0.265,0.019,0.388
	c0.012,0.123,0.018,0.179,0.018,0.166c0,0.752,0.142,1.128,0.425,1.128c0.197,0,0.425-0.265,0.684-0.795
	C1.232,4.86,1.448,4.669,1.793,4.472C2.224,4.226,2.662,3.98,3.105,3.733c0.407-0.234,1.029-0.444,1.867-0.628
	c0.763-0.16,1.398-0.241,1.903-0.241c0.739,0,1.386,0.105,1.94,0.315c0.333,0.11,0.696,0.295,1.091,0.554
	c0.32,0.21,0.548,0.314,0.683,0.314c0.099,0,0.207-0.067,0.324-0.203c0.117-0.136,0.237-0.203,0.36-0.203
	c0.111,0,0.311,0.11,0.601,0.332c0.289,0.222,0.52,0.469,0.693,0.739c0.135,0.37,0.222,0.672,0.259,0.906
	c0.123,0.591,0.286,1.053,0.489,1.386c0.204,0.333,0.391,0.499,0.564,0.499c0.271,0,0.483-0.24,0.637-0.721
	c0.154-0.48,0.305-0.721,0.453-0.721c0.136,0,0.274,0.176,0.416,0.527c0.141,0.351,0.213,0.693,0.213,1.026
	c0,0.123-0.074,0.388-0.222,0.794c-0.148,0.407-0.222,0.703-0.222,0.887v0.019c0,0.32,0.065,0.613,0.194,0.878
	c0.129,0.265,0.274,0.397,0.434,0.397c0.136,0,0.305-0.083,0.509-0.249c0.203-0.167,0.329-0.25,0.378-0.25h0.056
	c0.012,0.012,0.024,0.019,0.037,0.019c0.049,0.197,0.074,0.332,0.074,0.406c0,0.419-0.235,1.06-0.703,1.922
	c-0.505,0.936-1.034,1.614-1.589,2.033c-1.133,0.85-2.168,1.275-3.104,1.275c-1.134,0-2.107-0.296-2.92-0.887
	c-0.653-0.481-0.98-0.906-0.98-1.275v-0.074c0-0.21,0.056-0.527,0.167-0.952c0.11-0.425,0.166-0.717,0.166-0.878
	c0-0.221-0.068-0.403-0.203-0.545c-0.136-0.141-0.302-0.212-0.499-0.212c-0.382,0-0.789,0.302-1.22,0.905
	c-0.099-0.061-0.148-0.135-0.148-0.222c0-0.357,0.262-0.73,0.786-1.118c0.523-0.388,0.785-0.73,0.785-1.025
	c0-0.197-0.074-0.382-0.222-0.555c-0.148-0.172-0.32-0.258-0.517-0.258H6.579C6.776,8.254,7.177,7.903,7.78,7.595
	C8.347,7.312,8.883,7.17,9.388,7.17c0.382,0,0.786,0.117,1.211,0.351c0.425,0.235,0.656,0.512,0.693,0.832V8.39
	c0,0.123-0.068,0.185-0.204,0.185c-0.061,0-0.147-0.019-0.258-0.056s-0.191-0.055-0.241-0.055c-0.32,0-0.609,0.129-0.868,0.388
	C9.462,9.111,9.333,9.4,9.333,9.72c0,0.333,0.144,0.635,0.434,0.906c0.289,0.271,0.631,0.407,1.026,0.407
	c0.517,0,0.936-0.197,1.256-0.592c0.321-0.394,0.481-0.93,0.481-1.608c0-0.689-0.321-1.296-0.961-1.82
	C10.928,6.49,10.195,6.228,9.37,6.228c-1.257,0-2.35,0.499-3.28,1.497c-0.931,0.998-1.396,2.113-1.396,3.344
	c0,1.528,0.601,2.828,1.802,3.9c1.201,1.072,2.603,1.608,4.204,1.608h0.795c0.591,0,1.232-0.13,1.922-0.389
	c0.801-0.308,1.5-0.73,2.097-1.265c0.598-0.536,1.131-1.322,1.599-2.357c0.456-0.998,0.684-1.817,0.684-2.457
	c0-1.06-0.355-2.246-1.063-3.558c-0.709-1.312-1.512-2.251-2.412-2.818c-1.946-1.22-4.022-1.83-6.227-1.83
	c-0.937,0-1.824,0.068-2.661,0.204c-0.58,0.098-1.128,0.228-1.645,0.388L3.124,2.698H2.976c-0.037,0-0.062-0.012-0.074-0.037
	c0.111-0.308,0.819-0.647,2.125-1.016c1.515-0.419,3.197-0.629,5.045-0.629c0.949,0,1.999,0.192,3.151,0.573
	c1.152,0.382,1.956,0.807,2.411,1.275c0.136,0.148,0.462,0.586,0.98,1.312c0.296,0.419,0.585,0.629,0.868,0.629
	c0.185,0,0.345-0.117,0.481-0.351c0.234-0.419,0.357-0.641,0.37-0.666c0.615,0.727,0.924,1.275,0.924,1.645
	c0,0.148-0.025,0.345-0.074,0.591c-0.05,0.247-0.074,0.413-0.074,0.499c0,0.296,0.058,0.555,0.175,0.777
	c0.117,0.221,0.25,0.332,0.398,0.332c0.123,0,0.246-0.074,0.369-0.222c0.173-0.196,0.32-0.332,0.444-0.406
	c0.086,0.16,0.228,0.308,0.425,0.443c0.111,0.074,0.166,0.222,0.166,0.444v0.148c0,0.111-0.037,0.268-0.111,0.471
	c-0.074,0.203-0.111,0.33-0.111,0.379c0,0.493,0.16,0.819,0.481,0.979c0.234,0.111,0.462,0.216,0.684,0.314
	c0.221,0.469,0.394,0.875,0.517,1.22c0.185,0.419,0.37,0.844,0.554,1.275c0.222,0.592,0.333,1.189,0.333,1.793
	c0,0.369-0.065,0.68-0.194,0.933c-0.129,0.252-0.194,0.391-0.194,0.416c0,0.209,0.105,0.314,0.314,0.314
	c0.172,0,0.382-0.169,0.628-0.508c0.247-0.339,0.37-0.638,0.37-0.896v-0.13c0-0.185,0.006-0.363,0.019-0.536
	c0.997,0.961,2.088,1.645,3.271,2.052c1.108,0.369,2.494,0.554,4.157,0.554c1.738,0,3.241-0.45,4.51-1.349
	c1.01-0.715,1.795-1.589,2.356-2.624c0.56-1.035,0.841-2.132,0.841-3.29C39.511,7.903,39.246,6.604,38.716,5.507"/>
</svg>
