<?xml version="1.0" encoding="iso-8859-1"?>
<!-- Generator: Adobe Illustrator 17.1.0, SVG Export Plug-In . SVG Version: 6.00 Build 0)  -->
<!DOCTYPE svg PUBLIC "-//W3C//DTD SVG 1.1//EN" "http://www.w3.org/Graphics/SVG/1.1/DTD/svg11.dtd">
<svg version="1.1" id="Layer_1" xmlns="http://www.w3.org/2000/svg" xmlns:xlink="http://www.w3.org/1999/xlink" x="0px" y="0px"
	 viewBox="0 0 39.511 16.669" style="enable-background:new 0 0 39.511 16.669;" xml:space="preserve">
<path d="M0.795,5.507c0.69-1.429,1.583-2.525,2.68-3.289c0.875-0.616,1.681-0.924,2.42-0.924c0.752,0,1.654,0.12,2.708,0.36
	c1.053,0.24,1.765,0.36,2.134,0.36c1.072,0,1.898-0.406,2.477-1.219c0.345-0.493,0.671-0.74,0.979-0.74
	c0.247,0,0.407,0.136,0.48,0.407c-0.246,0.579-0.554,0.992-0.924,1.238c-0.307,0.197-0.462,0.333-0.462,0.407
	c0,0.012,0.007,0.046,0.019,0.101c0.012,0.056,0.018,0.108,0.018,0.157c0,0.37-0.2,0.647-0.6,0.832
	c-0.4,0.185-0.816,0.364-1.248,0.536c0.777,1.035,1.165,2.193,1.165,3.474c0,1.454-0.437,2.689-1.312,3.705
	c-0.875,1.017-1.928,1.525-3.16,1.525c-0.592,0-1.121-0.185-1.59-0.554c-0.468-0.37-0.702-0.801-0.702-1.294
	c0-0.419,0.083-0.758,0.249-1.016c0.167-0.259,0.392-0.388,0.675-0.388c0.739,0,1.109,0.418,1.109,1.256
	c0,0.284-0.228,0.548-0.684,0.795c0.185,0.246,0.339,0.369,0.462,0.369h0.055c0.05,0,0.139,0.01,0.268,0.028
	c0.13,0.019,0.231,0.028,0.305,0.028c0.986,0,1.824-0.456,2.514-1.368c0.69-0.911,1.034-1.983,1.034-3.215
	c0-0.973-0.449-2.039-1.349-3.197c-0.726-0.936-1.41-1.405-2.051-1.405H8.372c-0.123,0-0.21,0.044-0.259,0.13
	c0.296,0.258,0.444,0.64,0.444,1.145c0,0.37-0.031,0.617-0.093,0.74c-0.086,0.16-0.271,0.24-0.554,0.24
	c-0.308,0-0.776-0.145-1.405-0.434c-0.628-0.29-0.979-0.435-1.053-0.435c-0.185,0-0.425,0.062-0.721,0.185
	c-0.381,0.16-0.69,0.37-0.924,0.628c0.111,0.161,0.277,0.272,0.499,0.333c0.173,0.049,0.351,0.099,0.536,0.148
	c0.136,0.062,0.271,0.173,0.407,0.333c0.135,0.16,0.203,0.271,0.203,0.332c0,0.284-0.105,0.493-0.314,0.628
	C4.978,6.56,4.67,6.659,4.214,6.745C3.29,6.93,2.816,7.022,2.791,7.022c-0.271,0-0.61,0.173-1.017,0.518
	C1.368,7.885,1.165,8.211,1.165,8.519v0.037c0,0.111,0.03,0.191,0.092,0.24c0.48-0.172,0.739-0.258,0.776-0.258
	c0.395,0,0.591,0.32,0.591,0.961c0,0.172-0.147,0.502-0.443,0.988c-0.296,0.487-0.444,0.94-0.444,1.359
	c0,0.912,0.512,1.78,1.534,2.605c1.208,0.986,2.766,1.479,4.676,1.479c2.562,0,4.694-0.739,6.394-2.218
	c-0.333,0.013-0.727,0.074-1.183,0.185c-0.456,0.111-0.758,0.166-0.905,0.166c-0.049,0-0.327-0.055-0.832-0.166
	c-0.16-0.111-0.24-0.215-0.24-0.314c0-0.062,0.089-0.142,0.268-0.24c0.178-0.099,0.354-0.148,0.526-0.148
	c0.099,0,0.262-0.016,0.49-0.047c0.228-0.03,0.404-0.046,0.527-0.046c0.222,0,0.647-0.215,1.275-0.647
	c0.739-0.505,1.367-1.047,1.885-1.626c0.431-0.492,0.647-0.831,0.647-1.016c0-0.025-0.065-0.13-0.194-0.314
	c-0.13-0.185-0.194-0.37-0.194-0.555c0-0.48,0.098-0.763,0.295-0.85c0.727-0.308,1.226-0.721,1.497-1.238
	c0.16-0.283,0.271-0.714,0.333-1.294c0.099-0.8,0.431-1.502,0.998-2.106c0.567-0.604,1.429-1.189,2.587-1.756
	c1.232-0.603,2.372-1.028,3.419-1.275C26.698,0.142,27.992,0,29.421,0c3.203,0,5.95,0.746,8.242,2.236
	c0.825,0.53,1.318,0.869,1.478,1.016c0.247,0.247,0.37,0.549,0.37,0.906c0,0.136-0.007,0.265-0.019,0.388
	c-0.012,0.123-0.018,0.179-0.018,0.166c0,0.752-0.142,1.128-0.425,1.128c-0.197,0-0.425-0.265-0.684-0.795
	c-0.086-0.185-0.302-0.376-0.647-0.573c-0.431-0.246-0.869-0.492-1.312-0.739c-0.407-0.234-1.029-0.444-1.867-0.628
	c-0.763-0.16-1.398-0.241-1.903-0.241c-0.739,0-1.386,0.105-1.94,0.315C30.363,3.289,30,3.474,29.605,3.733
	c-0.32,0.21-0.548,0.314-0.683,0.314c-0.099,0-0.207-0.067-0.324-0.203c-0.117-0.136-0.237-0.203-0.36-0.203
	c-0.111,0-0.311,0.11-0.601,0.332c-0.289,0.222-0.52,0.469-0.693,0.739c-0.135,0.37-0.222,0.672-0.259,0.906
	c-0.123,0.591-0.286,1.053-0.489,1.386c-0.204,0.333-0.391,0.499-0.564,0.499c-0.271,0-0.483-0.24-0.637-0.721
	c-0.154-0.48-0.305-0.721-0.453-0.721c-0.136,0-0.274,0.176-0.416,0.527c-0.141,0.351-0.213,0.693-0.213,1.026
	c0,0.123,0.074,0.388,0.222,0.794c0.148,0.407,0.222,0.703,0.222,0.887v0.019c0,0.32-0.065,0.613-0.194,0.878
	c-0.129,0.265-0.274,0.397-0.434,0.397c-0.136,0-0.305-0.083-0.509-0.249c-0.203-0.167-0.329-0.25-0.378-0.25h-0.056
	c-0.012,0.012-0.024,0.019-0.037,0.019c-0.049,0.197-0.074,0.332-0.074,0.406c0,0.419,0.235,1.06,0.703,1.922
	c0.505,0.936,1.034,1.614,1.589,2.033c1.133,0.85,2.168,1.275,3.104,1.275c1.134,0,2.107-0.296,2.92-0.887
	c0.653-0.481,0.98-0.906,0.98-1.275v-0.074c0-0.21-0.056-0.527-0.167-0.952c-0.11-0.425-0.166-0.717-0.166-0.878
	c0-0.221,0.068-0.403,0.203-0.545c0.136-0.141,0.302-0.212,0.499-0.212c0.382,0,0.789,0.302,1.22,0.905
	c0.099-0.061,0.148-0.135,0.148-0.222c0-0.357-0.262-0.73-0.786-1.118c-0.523-0.388-0.785-0.73-0.785-1.025
	c0-0.197,0.074-0.382,0.222-0.555c0.148-0.172,0.32-0.258,0.517-0.258h0.056c-0.197-0.395-0.598-0.746-1.201-1.054
	c-0.567-0.283-1.103-0.425-1.608-0.425c-0.382,0-0.786,0.117-1.211,0.351c-0.425,0.235-0.656,0.512-0.693,0.832V8.39
	c0,0.123,0.068,0.185,0.204,0.185c0.061,0,0.147-0.019,0.258-0.056s0.191-0.055,0.241-0.055c0.32,0,0.609,0.129,0.868,0.388
	c0.259,0.259,0.388,0.548,0.388,0.868c0,0.333-0.144,0.635-0.434,0.906c-0.289,0.271-0.631,0.407-1.026,0.407
	c-0.517,0-0.936-0.197-1.256-0.592c-0.321-0.394-0.481-0.93-0.481-1.608c0-0.689,0.321-1.296,0.961-1.82
	c0.641-0.523,1.374-0.785,2.199-0.785c1.257,0,2.35,0.499,3.28,1.497c0.931,0.998,1.396,2.113,1.396,3.344
	c0,1.528-0.601,2.828-1.802,3.9c-1.201,1.072-2.603,1.608-4.204,1.608h-0.795c-0.591,0-1.232-0.13-1.922-0.389
	c-0.801-0.308-1.5-0.73-2.097-1.265c-0.598-0.536-1.131-1.322-1.599-2.357c-0.456-0.998-0.684-1.817-0.684-2.457
	c0-1.06,0.355-2.246,1.063-3.558c0.709-1.312,1.512-2.251,2.412-2.818c1.946-1.22,4.022-1.83,6.227-1.83
	c0.937,0,1.824,0.068,2.661,0.204c0.58,0.098,1.128,0.228,1.645,0.388l0.665,0.203h0.148c0.037,0,0.062-0.012,0.074-0.037
	c-0.111-0.308-0.819-0.647-2.125-1.016c-1.515-0.419-3.197-0.629-5.045-0.629c-0.949,0-1.999,0.192-3.151,0.573
	c-1.152,0.382-1.956,0.807-2.411,1.275c-0.136,0.148-0.462,0.586-0.98,1.312c-0.296,0.419-0.585,0.629-0.868,0.629
	c-0.185,0-0.345-0.117-0.481-0.351c-0.234-0.419-0.357-0.641-0.37-0.666c-0.615,0.727-0.924,1.275-0.924,1.645
	c0,0.148,0.025,0.345,0.074,0.591c0.05,0.247,0.074,0.413,0.074,0.499c0,0.296-0.058,0.555-0.175,0.777
	c-0.117,0.221-0.25,0.332-0.398,0.332c-0.123,0-0.246-0.074-0.369-0.222c-0.173-0.196-0.32-0.332-0.444-0.406
	c-0.086,0.16-0.228,0.308-0.425,0.443c-0.111,0.074-0.166,0.222-0.166,0.444v0.148c0,0.111,0.037,0.268,0.111,0.471
	c0.074,0.203,0.111,0.33,0.111,0.379c0,0.493-0.16,0.819-0.481,0.979c-0.234,0.111-0.462,0.216-0.684,0.314
	c-0.221,0.469-0.394,0.875-0.517,1.22c-0.185,0.419-0.37,0.844-0.554,1.275c-0.222,0.592-0.333,1.189-0.333,1.793
	c0,0.369,0.065,0.68,0.194,0.933c0.129,0.252,0.194,0.391,0.194,0.416c0,0.209-0.105,0.314-0.314,0.314
	c-0.172,0-0.382-0.169-0.628-0.508c-0.247-0.339-0.37-0.638-0.37-0.896v-0.13c0-0.185-0.006-0.363-0.019-0.536
	c-0.997,0.961-2.088,1.645-3.271,2.052c-1.108,0.369-2.494,0.554-4.157,0.554c-1.738,0-3.241-0.45-4.51-1.349
	c-1.01-0.715-1.795-1.589-2.356-2.624C0.281,11.661,0,10.564,0,9.406C0,7.903,0.265,6.604,0.795,5.507"/>
</svg>
